HIERARCHY
ROOT hip
{
	OFFSET 0.000000 0.000000 0.000000 
	CHANNELS 6 Xposition Yposition Zposition Xrotation Zrotation Yrotation
	JOINT abdomen
	{
		OFFSET 0.000000 3.402643 0.000000 
		CHANNELS 3 Xrotation Zrotation Yrotation
		JOINT chest
		{
			OFFSET 0.000000 8.438565 -0.680529 
			CHANNELS 3 Xrotation Zrotation Yrotation
			JOINT neck
			{
				OFFSET 0.000000 10.207942 -0.272212 
				CHANNELS 3 Xrotation Zrotation Yrotation
				JOINT head
				{
					OFFSET 0.000000 3.130431 0.000000 
					CHANNELS 3 Xrotation Zrotation Yrotation
					End Site
					{
						OFFSET 0.000000 3.130435 0.000000 
					}
				}
			}
			JOINT lCollar
			{
				OFFSET 3.470700 6.669187 -0.816635 
				CHANNELS 3 Yrotation Zrotation Xrotation
				JOINT lShldr
				{
					OFFSET 3.198488 0.000000 0.000000 
					CHANNELS 3 Zrotation Yrotation Xrotation
					JOINT lForeArm
					{
						OFFSET 10.139888 0.000000 0.000000 
						CHANNELS 3 Yrotation Zrotation Xrotation
						JOINT lHand
						{
							OFFSET 8.370511 0.000000 0.000000 
							CHANNELS 3 Zrotation Yrotation Xrotation
							End Site
							{
								OFFSET 4.083176 0.000000 0.000000 
							}
						}
					}
				}
			}
			JOINT rCollar
			{
				OFFSET -3.470700 6.669187 -0.816635 
				CHANNELS 3 Yrotation Zrotation Xrotation
				JOINT rShldr
				{
					OFFSET -3.198488 0.000000 0.000000 
					CHANNELS 3 Zrotation Yrotation Xrotation
					JOINT rForeArm
					{
						OFFSET -10.139888 0.000000 0.000000 
						CHANNELS 3 Yrotation Zrotation Xrotation
						JOINT rHand
						{
							OFFSET -8.370511 0.000000 0.000000 
							CHANNELS 3 Zrotation Yrotation Xrotation
							End Site
							{
								OFFSET -4.083176 0.000000 0.000000 
							}
						}
					}
				}
			}
		}
	}
	JOINT lThigh
	{
		OFFSET 5.308129 -1.633274 1.361059 
		CHANNELS 3 Xrotation Zrotation Yrotation
		JOINT lShin
		{
			OFFSET -2.041588 -20.007561 0.000000 
			CHANNELS 3 Xrotation Zrotation Yrotation
			JOINT lFoot
			{
				OFFSET 0.000000 -19.190928 -1.224953 
				CHANNELS 3 Xrotation Yrotation Zrotation
				End Site
				{
					OFFSET 0.000000 -2.449906 4.627600 
				}
			}
		}
	}
	JOINT rThigh
	{
		OFFSET -5.308129 -1.633274 1.361059 
		CHANNELS 3 Xrotation Zrotation Yrotation
		JOINT rShin
		{
			OFFSET 2.041588 -20.007561 0.000000 
			CHANNELS 3 Xrotation Zrotation Yrotation
			JOINT rFoot
			{
				OFFSET 0.000000 -19.190928 -1.224953 
				CHANNELS 3 Xrotation Yrotation Zrotation
				End Site
				{
					OFFSET 0.000000 -2.449906 4.627600 
				}
			}
		}
	}
}
MOTION
Frames: 15
Frame Time: 0.011111
-46.486374 53.262142 0.953086 -3.896473 -7.294524 80.484734 16.968639 6.311553 7.564234 -20.679844 -2.757460 1.434308 -22.373451 -8.711847 -20.766773 49.490154 18.392178 -38.692245 -13.725516 -13.189672 -3.762996 -62.720684 -22.655695 12.361653 -53.845402 8.476158 9.734459 8.524705 12.647240 -40.384171 8.354301 9.292459 -1.514610 71.523529 19.802906 6.983515 50.759335 -7.875252 8.468883 -8.534408 -12.637552 15.365093 -0.371539 12.152773 3.431389 10.358965 -5.986769 -2.151956 -32.231598 3.134738 0.499471 -5.029993 -1.308134 6.656172 12.612078 5.944719 2.469254 -17.627905 -0.561266 2.688656 
-46.373383 53.331722 1.095123 -3.900675 -7.004207 82.146179 16.847534 6.268055 6.321077 -20.240290 -2.473775 1.082574 -24.757652 -8.558524 -19.470015 50.003235 16.867790 -36.875099 -13.725516 -13.189672 -3.762996 -62.746571 -22.873312 12.574049 -53.803383 8.468864 9.713770 8.524705 12.647240 -40.501354 8.354301 9.292459 -1.514610 71.409927 19.953564 6.704515 50.728298 -7.868840 8.448947 -8.534408 -12.637552 15.150249 -0.283369 12.293576 3.581822 10.360840 -5.983014 -2.161378 -31.357162 2.493409 -0.052122 -3.706759 -1.327575 6.994866 11.415586 5.966214 2.294389 -18.122314 -2.310031 2.099691 
-46.248260 53.405136 1.239395 -3.930064 -6.766036 83.746552 16.601694 6.220335 5.026101 -19.859585 -2.086472 0.738668 -26.603140 -6.853244 -18.617313 49.189667 13.373279 -35.983952 -13.725516 -13.189672 -3.762996 -62.849823 -22.947849 12.705858 -53.772114 8.464966 9.702645 8.524705 12.647240 -40.589241 8.354301 9.292459 -1.514610 71.248169 20.047302 6.558692 50.550785 -7.831077 8.378572 -8.534408 -12.637552 14.964702 -0.235004 12.474024 3.694056 10.347867 -5.986007 -2.160771 -30.528650 1.857177 -0.582783 -2.424647 -1.277196 7.529693 10.219954 5.973685 2.128951 -18.726103 -4.145353 1.459678 
-46.097607 53.579727 1.368345 -3.759487 -6.690959 86.359131 15.957699 6.216521 2.824039 -19.371569 -1.651309 0.143733 -24.410526 -6.254795 -18.123846 43.049252 14.359235 -34.431908 -13.725516 -13.189672 -3.762996 -62.970936 -23.026606 12.722321 -53.666389 8.443912 9.650569 8.524705 12.647240 -40.667374 8.354301 9.292459 -1.514610 71.064201 20.157417 6.511526 50.320515 -7.778676 8.288729 -8.534408 -12.637552 14.788922 -0.566422 12.525160 3.407206 10.336585 -5.985564 -2.169611 -29.279432 0.947304 -1.274121 -0.896832 -1.422216 8.543541 8.428428 5.984472 1.900209 -19.879553 -7.201768 0.328309 
-46.374977 53.539192 0.776257 -2.592129 -8.947999 85.076500 14.257874 6.547055 4.193740 -19.779409 -3.442255 0.522826 -20.833130 -2.553488 -18.677782 32.462376 10.418920 -35.534172 -13.725516 -13.189672 -3.762996 -62.976173 -23.007679 13.132479 -53.592926 8.433056 9.627193 8.524705 12.647240 -40.579479 8.354301 9.292459 -1.514610 70.998466 20.256126 6.266499 50.122742 -7.737051 8.208475 -8.534408 -12.637552 14.603374 -3.484588 10.481799 1.743433 10.521986 -5.996082 -2.187161 -28.874180 4.149612 0.289588 -5.754268 -3.482756 5.210353 10.680534 5.972402 2.209244 -18.620573 -3.482718 1.680434 
-46.500416 53.535366 0.535592 -1.904717 -9.999911 83.451859 13.562836 6.131550 5.866329 -19.973934 -4.255713 1.024785 -15.229942 10.746409 -20.114933 12.334251 -13.543842 -37.655315 -13.725516 -13.189672 -3.762996 -62.847595 -22.886871 13.985003 -53.582180 8.429575 9.617665 8.524705 12.647240 -40.403702 8.354301 9.292459 -1.514610 71.075806 20.367054 5.786037 49.934677 -7.692787 8.130260 -8.534408 -12.637552 14.476422 -4.511637 9.570051 1.709749 10.168664 -5.982831 -2.154429 -28.423409 6.308984 1.194128 -8.321468 -4.303110 4.363537 12.132439 5.951622 2.416923 -18.081776 -1.394323 2.380297 
-46.479671 53.536320 0.534315 -1.815310 -10.075438 83.292816 13.507534 5.944106 6.196594 -19.866077 -4.366381 1.132759 -16.631424 7.461811 -19.118155 17.218664 -7.037794 -36.188908 -13.725516 -13.189672 -3.762996 -62.827091 -22.892149 14.377628 -53.519646 8.421474 9.595558 8.524705 12.647240 -40.432999 8.354301 9.292459 -1.514610 71.052055 20.501949 5.521913 49.767994 -7.656695 8.070450 -8.534408 -12.637552 14.329937 -4.490422 9.449080 1.942963 9.899899 -5.997149 -2.091686 -28.004068 6.848429 1.344371 -8.438837 -4.381471 4.399521 12.164267 5.954984 2.390635 -18.093164 -1.277879 2.424684 
-46.449669 53.533768 0.539422 -1.763051 -10.122160 83.232552 13.424568 5.875414 6.235893 -19.846462 -4.386526 1.150572 -17.943815 4.378857 -18.004549 21.894884 -1.353225 -34.237492 -13.725516 -13.189672 -3.762996 -62.938942 -22.797422 14.356688 -53.435425 8.406881 9.562778 8.524705 12.647240 -40.599010 8.354301 9.292459 -1.514610 70.936317 20.444475 5.619646 49.642406 -7.624076 8.012628 -8.534408 -12.637552 14.329937 -4.480584 9.370791 2.236356 9.712914 -5.984414 -2.083811 -27.563578 7.257107 1.397738 -8.453882 -4.422424 4.428598 12.115202 5.942780 2.404630 -18.063555 -1.308752 2.407140 
-46.356789 53.549408 0.582512 -1.746548 -10.413752 83.253593 12.765941 5.805513 6.210108 -19.543215 -4.246414 1.149431 -19.050573 1.587104 -16.921410 26.106773 3.549990 -32.156322 -13.725516 -13.189672 -3.762996 -63.090710 -22.661692 14.408656 -53.371731 8.392769 9.532999 8.524705 12.647240 -40.696663 8.354301 9.292459 -1.514610 70.769829 20.290110 5.854652 49.590675 -7.615596 8.001967 -8.534408 -12.637552 14.476422 -4.657294 9.382036 2.775935 9.877718 -5.996074 -2.089879 -27.578314 6.998334 1.289811 -8.582092 -4.374240 4.374211 11.958476 5.952190 2.381606 -18.025127 -1.248845 2.430492 
-46.172935 53.590584 0.626878 -1.842579 -10.884512 84.701035 11.515859 6.167240 5.097718 -19.004353 -4.337383 0.824183 -20.269218 -0.846417 -15.930822 30.329466 7.597397 -30.076847 -13.725516 -13.189672 -3.762996 -63.081429 -22.417715 14.462389 -53.309200 8.384400 9.509588 8.524705 12.647240 -40.725964 8.354301 9.292459 -1.514610 70.856789 20.125387 5.910592 49.580017 -7.611118 7.991700 -8.534408 -12.637552 14.388530 -5.259600 9.337985 2.305189 9.942601 -5.981959 -2.114612 -27.306641 6.313682 0.924922 -8.266274 -4.548457 3.702100 11.140186 5.965416 2.259904 -18.220957 -1.939766 2.199771 
-46.232624 53.588665 0.635816 -1.686421 -10.961771 83.595589 11.843893 5.803334 5.944059 -19.190584 -4.311060 1.082966 -21.727268 -2.895266 -15.000345 34.171356 10.469074 -28.120617 -13.725516 -13.189672 -3.762996 -63.077404 -22.467150 14.584614 -53.214241 8.365854 9.468935 8.524705 12.647240 -40.686905 8.354301 9.292459 -1.514610 70.807533 20.295925 5.794056 49.475788 -7.587041 7.953366 -8.534408 -12.637552 14.154155 -5.193545 9.371189 2.779083 9.802931 -5.987834 -2.072481 -27.408384 6.906167 1.212710 -8.862637 -4.441575 4.247932 11.685129 5.952384 2.356933 -18.139734 -1.429730 2.370747 
-46.194958 53.592491 0.636774 -1.661789 -10.953679 83.384933 11.878114 5.797887 6.133884 -19.072979 -4.363556 1.131498 -23.290087 -4.625668 -14.061629 38.011547 12.489010 -26.192060 -13.725516 -13.189672 -3.762996 -63.094158 -22.440851 14.739867 -53.192566 8.359310 9.458302 8.524705 12.647240 -40.628307 8.354301 9.292459 -1.514610 70.760658 20.397558 5.759473 49.370586 -7.556396 7.906519 -8.534408 -12.637552 13.841656 -5.038776 9.354609 2.800487 9.649902 -5.994117 -2.069470 -27.464911 7.155825 1.343316 -8.832560 -4.441314 4.376393 11.684801 5.954670 2.327922 -18.170860 -1.312389 2.415744 
-46.137825 53.594727 0.647306 -1.616572 -10.884734 83.243393 11.894021 5.769219 6.225964 -18.965223 -4.385988 1.152080 -24.895760 -6.225980 -13.108010 41.924454 14.053282 -24.276312 -13.725516 -13.189672 -3.762996 -63.159744 -22.375622 14.713034 -53.172047 8.358609 9.456832 8.524705 12.647240 -40.735729 8.354301 9.292459 -1.514610 70.719582 20.411018 5.810307 49.256718 -7.533706 7.865567 -8.534408 -12.637552 13.411968 -4.761658 9.278518 2.722629 9.458967 -6.006007 -2.023303 -27.489849 7.312570 1.429654 -8.665178 -4.460159 4.431717 11.615418 5.961315 2.332042 -18.151716 -1.282978 2.421619 
-46.098885 53.589943 0.664542 -1.564039 -10.833045 83.231491 11.899233 5.690510 6.286742 -18.955385 -4.406240 1.170324 -26.268534 -7.569881 -12.218027 45.639336 15.306109 -22.416342 -13.725516 -13.189672 -3.762996 -63.192234 -22.222052 14.689806 -53.108364 8.344126 9.427236 8.524705 12.647240 -40.891979 8.354301 9.292459 -1.514610 70.739151 20.354656 5.744845 49.194565 -7.519681 7.836451 -8.534408 -12.637552 13.118999 -4.597316 9.213533 2.683769 9.361061 -5.996067 -2.013840 -27.532106 7.353950 1.439461 -8.549690 -4.489954 4.416539 11.521017 5.953070 2.312775 -18.102455 -1.314981 2.414533 
-46.081329 53.581959 0.677629 -1.541269 -10.851229 83.231621 11.883554 5.635648 6.354711 -19.102015 -4.501343 1.198686 -27.524448 -8.589879 -11.380413 49.308575 16.072790 -20.631783 -13.725516 -13.189672 -3.762996 -63.151772 -21.880186 14.877247 -53.098766 8.346383 9.425498 8.524705 12.647240 -40.872448 8.354301 9.292459 -1.514610 70.867897 20.117203 5.646420 49.225540 -7.527008 7.855877 -8.534408 -12.637552 12.943218 -4.577706 9.203576 2.664036 9.390317 -5.986369 -2.015873 -27.608643 7.325270 1.437408 -8.549611 -4.509450 4.407045 11.531541 5.953456 2.323416 -18.142412 -1.256417 2.414599 
